<svg xmlns="http://www.w3.org/2000/svg" viewBox="0 12.199999809265137 63.23235321044922 34.456756591796875" data-asc="0.9"><g fill="#e91616"><g fill="#e91616" transform="translate(0, 0)"><path d="M12.75 46.65Q11.10 46.70 9.10 46.38Q7.10 46.05 5.20 45.25Q3.30 44.45 1.90 43.15Q0.50 41.85 0 39.95Q1.80 41.55 4.90 42.27Q8 43 11.20 43Q15.45 43 18.60 42.05Q19.50 41.80 20.70 41.23Q21.90 40.65 23.05 39.88Q24.20 39.10 24.98 38.15Q25.75 37.20 25.75 36.20Q25.75 35.50 25.30 34.85Q24.85 34.20 23.85 33.55Q23.25 33.20 22.13 32.77Q21 32.35 19.70 31.77Q18.40 31.20 17.25 30.42Q16.10 29.65 15.43 28.57Q14.75 27.50 14.90 26.10Q15.15 24.05 16.77 22.02Q18.40 20 20.88 18.22Q23.35 16.45 26.23 15.10Q29.10 13.75 31.88 12.98Q34.65 12.20 36.80 12.20Q39 12.20 40.58 13.05Q42.15 13.90 41.90 15.95Q41.80 16.85 40.68 18.10Q39.55 19.35 38 20.85Q36.45 22.35 34.92 24Q33.40 25.65 32.43 27.35Q31.45 29.05 31.55 30.65Q30.75 30 30.38 29.20Q30 28.40 30 27.55Q30 26.35 30.50 25.10Q31 23.85 31.75 22.72Q32.50 21.60 33.15 20.80Q34.30 19.40 35.75 18.15Q37.20 16.90 38.70 15.85Q38.25 15.20 37.15 15.20Q36 15.20 34.58 15.70Q33.15 16.20 31.93 16.77Q30.70 17.35 30.20 17.65Q28.05 18.80 25.88 20.25Q23.70 21.70 21.88 23.20Q20.05 24.70 18.93 25.97Q17.80 27.25 17.70 28.10Q17.60 29.15 18.60 29.88Q19.60 30.60 21.20 31.20Q22.80 31.80 24.35 32.60Q26.45 33.65 27.40 35Q28.35 36.35 28.35 37.80Q28.35 39.60 27 41.33Q25.65 43.05 23.35 44.20Q21.30 45.20 19.07 45.75Q16.85 46.30 15.13 46.48Q13.40 46.65 12.75 46.65ZM37.40 45.05Q35.25 45.05 34.50 44.23Q33.75 43.40 33.75 42.40Q33.75 41.10 34.75 39.65Q35.35 38.80 36.10 37.73Q36.85 36.65 37.50 35.70Q38.15 34.75 38.40 34.35Q38.75 33.85 38.83 33.67Q38.90 33.50 38.90 33.30Q38.90 33 38.52 32.73Q38.15 32.45 37.30 32.45Q37.05 32.45 36.88 32.48Q36.70 32.50 36.50 32.50Q36.10 32.50 36.05 32.45L35.90 32.65Q34.50 34.50 32.90 36.27Q31.30 38.05 29.40 39.55Q29.20 39.70 29.10 39.70Q28.90 39.70 28.90 39.50Q28.90 39.10 29.50 38.60Q31.05 37.30 32.55 35.67Q34.05 34.05 35.25 32.25Q34.80 31.95 34.80 31.05Q34.80 29.70 35.65 28.15Q36.25 27.10 36.98 26.57Q37.70 26.05 38.25 26.05Q39.30 26.05 39.30 27.30Q39.30 28.10 38.70 29.30Q38.45 29.90 37.73 30.82Q37 31.75 36.30 32.15Q37.35 31.80 38.98 31.67Q40.60 31.55 41.70 31.55Q42.35 31.55 43.30 31.92Q44.25 32.30 44.25 33.25Q44.25 33.90 43.65 34.65Q43.50 34.85 42.85 35.60Q42.20 36.35 41.42 37.40Q40.65 38.45 40 39.50Q39.35 40.45 38.98 41.25Q38.60 42.05 38.60 42.60Q38.60 43.40 39.50 43.40Q40.55 43.40 42.30 42.40Q44.05 41.40 46.08 39.83Q48.10 38.25 49.80 36.55Q50 36.35 50.15 36.35Q50.35 36.35 50.35 36.60Q50.35 36.90 50.10 37.15Q48.35 38.90 46.22 40.73Q44.10 42.55 41.83 43.80Q39.55 45.05 37.40 45.05ZM59.10 29.70Q58.40 29.70 58.05 29.25Q57.70 28.80 57.70 28.30Q57.70 27.30 58.65 26.32Q59.60 25.35 60.65 25.35Q61.35 25.35 61.70 25.80Q62.05 26.25 62.05 26.75Q62.05 27.80 61.13 28.75Q60.20 29.70 59.10 29.70M51.45 45.05Q49.40 45.05 48.68 44.17Q47.95 43.30 47.95 42.20Q47.95 41.30 48.25 40.48Q48.55 39.65 48.75 39.30Q49.05 38.80 49.58 38.15Q50.10 37.50 50.75 36.75Q49.75 37.60 48.88 38.40Q48 39.20 47.45 39.60Q47.30 39.75 47.15 39.75Q46.95 39.75 46.95 39.50Q46.95 39.10 47.50 38.70Q48.80 37.60 50.03 36.30Q51.25 35 52.35 33.88Q53.45 32.75 54.30 32.30Q55.20 31.80 55.75 31.65Q56.30 31.50 56.65 31.50Q57.20 31.50 57.45 31.67Q57.70 31.85 57.55 32.05Q56.70 32.90 55.88 34.23Q55.05 35.55 54.35 37Q53.65 38.45 53.23 39.75Q52.80 41.05 52.80 41.95Q52.80 43.20 53.80 43.20Q54.75 43.20 56.28 42.33Q57.80 41.45 59.48 40.10Q61.15 38.75 62.60 37.45Q62.80 37.25 62.95 37.25Q63.20 37.25 63.23 37.50Q63.25 37.75 63.10 37.85Q61.45 39.40 59.38 41.08Q57.30 42.75 55.23 43.90Q53.15 45.05 51.45 45.05Z"/></g></g></svg>